# xmcd CD database file
#
# Track frame offsets:
#	150
#	12299
#	24523
#	35049
#	41741
#	51151
#	63075
#	75600
#	89472
#	102182
#	116521
#	125875
#	138456
#	146838
#	157521
#	168590
#	177947
#	186995
#	200659
#	210844
#
# Disc length: 3012 seconds
#
# Revision: 2
# Processed by: cddbd v1.5.1PL2 Copyright (c) Steve Scherf et al.
# Submitted via: CDex 1.51
#
DISCID=170bc214
DTITLE=Martingale Music - Christmas Peace: Solo Piano
DYEAR=1900
DGENRE=Christmas
TTITLE0=Eric Wyse - O Come, O Come, Emmanuel
TTITLE1=Eric Wyse - Away In The Manger
TTITLE2=Eric Wyse - Hark! The Herald Angels Sing
TTITLE3=Eric Wyse - He Is Born, The Divine Christ Child
TTITLE4=Eric Wyse - Good King Wenceslas
TTITLE5=Eric Wyse - In The Bleak Mid-Winter
TTITLE6=Eric Wyse - It Came Upon The Midnight Clear
TTITLE7=Eric Wyse - Lo, How A Rose E'er Blooming
TTITLE8=Eric Wyse - Of The Father's Heart Begotten
TTITLE9=Eric Wyse - Silent Night
TTITLE10=Eric Wyse - Sussex Carol
TTITLE11=Eric Wyse - The Angel Gabriel From Heaven
TTITLE12=Eric Wyse - Unto Us A Child Is Born
TTITLE13=Eric Wyse - Wexford Carol
TTITLE14=Eric Wyse - What Child Is This?
TTITLE15=Eric Wyse - Whence Is This Goodly Fragrance Coming?
TTITLE16=Eric Wyse - Gloucestershire Carol
TTITLE17=Eric Wyse - O Little Town Of Bethlehem
TTITLE18=Eric Wyse - Good Christian Men, Rejoice
TTITLE19=Eric Wyse With Diane Stasio - Let All Mortal Flesh Keep Silence
EXTD=
EXTT0=
EXTT1=
EXTT2=
EXTT3=
EXTT4=
EXTT5=
EXTT6=
EXTT7=
EXTT8=
EXTT9=
EXTT10=
EXTT11=
EXTT12=
EXTT13=
EXTT14=
EXTT15=
EXTT16=
EXTT17=
EXTT18=
EXTT19=
PLAYORDER=
